<?xml version="1.0" encoding="UTF-8"?>
<svg width="25px" height="25px" viewBox="0 0 25 25" version="1.1" xmlns="http://www.w3.org/2000/svg" xmlns:xlink="http://www.w3.org/1999/xlink">
    <!-- Generator: Sketch 50.2 (55047) - http://www.bohemiancoding.com/sketch -->
    <title>知乎</title>
    <desc>Created with Sketch.</desc>
    <defs></defs>
    <g id="Page-1" stroke="none" stroke-width="1" fill="none" fill-rule="evenodd">
        <g id="Desktop" transform="translate(-112.000000, -116.000000)" fill="#1389E9" fill-rule="nonzero">
            <g id="知乎" transform="translate(112.000000, 116.000000)">
                <path d="M4.69667319,0.204500978 C3.44422701,0.642857143 3.13111546,1.08121331 2.37964775,3.39823875 C1.94129159,4.77592955 1.18982387,6.71722114 0.626223092,7.8444227 C0.438356164,8.22015656 0.375733855,8.47064579 0.375733855,8.5332681 C0.438356164,8.59589041 1.44031311,8.34540117 1.87866928,8.15753425 C2.0665362,8.09491194 2.50489237,7.71917808 2.7553816,7.46868885 C3.19373777,7.03033268 3.50684932,6.52935421 3.81996086,5.59001957 C3.88258317,5.46477495 4.00782779,5.46477495 5.26027397,5.46477495 L6.57534247,5.46477495 L6.57534247,6.4667319 C6.57534247,7.59393346 6.45009785,11.0381605 6.32485323,11.4765166 L6.26223092,11.7896282 L1.44031311,11.7896282 L1.25244618,11.9774951 C1.00195695,12.2279843 0.626223092,12.9794521 0.500978474,13.4804305 L0.438356164,13.7309198 L3.25636008,13.7309198 L6.07436399,13.7935421 L6.01174168,14.2945205 C5.94911937,16.5489237 4.63405088,19.6174168 2.81800391,21.7465753 C2.37964775,22.3727984 0.939334638,23.8131115 0.313111546,24.2514677 C-0.0626223092,24.5019569 -0.0626223092,24.5019569 0.125244618,24.6272016 C0.563600783,24.8776908 2.12915851,24.6898239 3.31898239,24.2514677 C3.81996086,24.0636008 4.00782779,24.0009785 4.44618395,23.5 C5.4481409,22.4980431 6.45009785,20.6819961 7.07632094,18.8033268 L7.45205479,17.7387476 L7.76516634,18.1144814 C7.95303327,18.3023483 8.2035225,18.6780822 8.39138943,18.9285714 C10.1448141,21.0577299 10.6457926,21.683953 11.0841487,22.2475538 C11.7729941,23.1868885 11.9608611,23.4373777 12.0861057,23.3747554 C12.148728,23.3121331 12.3365949,22.1849315 12.3365949,21.5587084 C12.3365949,20.3688845 12.2739726,20.3062622 10.9589041,18.7407045 C9.58121331,17.1751468 8.8297456,16.2984344 8.70450098,16.2984344 C8.64187867,16.2984344 8.45401174,16.4863014 8.07827789,16.7367906 C7.82778865,16.9872798 7.5146771,17.1751468 7.5146771,17.1751468 C7.5146771,17.1751468 7.5146771,16.9872798 7.57729941,16.7367906 C7.70254403,16.3610568 8.01565558,14.795499 8.07827789,14.1066536 L8.1409002,13.7309198 L13.4011742,13.7309198 L13.3385519,13.167319 C13.2759295,12.8542074 13.2759295,12.4158513 13.1506849,12.165362 L13.0254403,11.7270059 L8.32876712,11.7270059 L8.39138943,10.8502935 C8.45401174,10.4119374 8.45401174,8.97162427 8.45401174,7.65655577 L8.51663405,5.46477495 L12.9001957,5.46477495 L12.8375734,4.77592955 C12.7749511,3.96183953 12.6497065,3.64872798 12.3992172,3.52348337 C12.2739726,3.46086106 11.2720157,3.46086106 8.39138943,3.46086106 L4.57142857,3.46086106 L4.69667319,2.89726027 C4.7592955,2.58414873 5.00978474,1.89530333 5.19765166,1.26908023 C5.4481409,0.642857143 5.63600783,0.141878669 5.63600783,0.0792563601 C5.63600783,-0.0459882583 5.19765166,0.0166340509 4.69667319,0.204500978 Z M14.778865,3.27299413 C14.7162427,3.52348337 14.7162427,21.6213307 14.8414873,21.8091977 C14.9041096,21.9344423 15.0293542,21.9344423 15.7808219,21.9344423 L16.5949119,21.9344423 L16.8454012,22.7485323 C16.9706458,23.1868885 17.0958904,23.6878669 17.1585127,23.7504892 C17.221135,23.8757339 17.221135,24.0009785 17.221135,24.0009785 C17.2837573,24.0009785 17.4716243,23.9383562 17.6594912,23.7504892 C20.665362,21.87182 20.2896282,21.9344423 22.7945205,21.9344423 C24.3600783,21.9344423 24.8610568,21.87182 24.8610568,21.8091977 C24.9236791,21.7465753 24.9236791,19.1790607 24.9236791,12.4158513 L24.9863014,3.0851272 L19.851272,3.02250489 C15.3424658,3.14774951 14.8414873,3.14774951 14.778865,3.27299413 Z M22.9823875,12.4784736 L22.9823875,19.8679061 L21.7925636,19.9305284 L20.665362,19.9931507 L19.6634051,20.6193738 C19.0998043,20.869863 18.5362035,21.2455969 18.3483366,21.3708415 L18.0978474,21.5587084 L18.035225,21.1829746 C17.9726027,20.9951076 17.9099804,20.6193738 17.7847358,20.3688845 L17.6594912,19.9305284 L16.8454012,19.9305284 L16.8454012,12.6037182 C16.8454012,8.5332681 16.9080235,5.21428571 16.9080235,5.21428571 C16.9706458,5.15166341 18.2857143,5.15166341 19.9765166,5.15166341 L22.9823875,5.21428571 L22.9823875,12.4784736 Z" id="Shape"></path>
            </g>
        </g>
    </g>
</svg>