<?xml version="1.0" standalone="no"?><!DOCTYPE svg PUBLIC "-//W3C//DTD SVG 1.1//EN" "http://www.w3.org/Graphics/SVG/1.1/DTD/svg11.dtd"><svg t="1560072003763" class="icon" style="" viewBox="0 0 1024 1024" version="1.1" xmlns="http://www.w3.org/2000/svg" p-id="7637" xmlns:xlink="http://www.w3.org/1999/xlink" width="16" height="16"><defs><style type="text/css"></style></defs><path d="M948.2 859.6L775 686.3c46.3-64.3 73.8-143.3 73.8-228.6 0-216-175.1-391.1-391.1-391.1-216 0-391.1 175.1-391.1 391.1 0 216.1 175.1 391.1 391.1 391.1 85.3 0 164.4-27.3 228.6-73.7l173.2 173.2c12.3 12.3 32.1 12.3 44.4 0l44.4-44.4c12.2-12.2 12.2-32.1-0.1-44.3z m-770-401.9c0-154.3 125.1-279.4 279.4-279.4S737 303.4 737 457.7c0 154.3-125.1 279.4-279.4 279.4s-279.4-125-279.4-279.4z m0 0" p-id="7638" fill="#999999"></path></svg>